<svg width="114" height="115" viewBox="0 0 114 115" fill="none" xmlns="http://www.w3.org/2000/svg">
<g clip-path="url(#clip0_1_1509)">
<mask id="mask0_1_1509" style="mask-type:luminance" maskUnits="userSpaceOnUse" x="0" y="0" width="114" height="115">
<path d="M114 57.5C114 26.0198 88.4802 0.5 57 0.5C25.5198 0.5 0 26.0198 0 57.5C0 88.9802 25.5198 114.5 57 114.5C88.4802 114.5 114 88.9802 114 57.5Z" fill="white"/>
</mask>
<g mask="url(#mask0_1_1509)">
<path d="M114 57.4994C114 88.9802 88.4798 114.5 57.0003 114.5C25.5204 114.5 0 88.9802 0 57.4994C0 26.0202 25.5204 0.5 57.0003 0.5C88.4798 0.5 114 26.0202 114 57.4994Z" fill="#1167C3"/>
</g>
<mask id="mask1_1_1509" style="mask-type:luminance" maskUnits="userSpaceOnUse" x="-1" y="0" width="115" height="115">
<path d="M113.994 57.5016C113.994 26.0214 88.4744 0.501587 56.9942 0.501587C25.514 0.501587 -0.00579834 26.0214 -0.00579834 57.5016C-0.00579834 88.9818 25.514 114.502 56.9942 114.502C88.4744 114.502 113.994 88.9818 113.994 57.5016Z" fill="white"/>
</mask>
<g mask="url(#mask1_1_1509)">
<path d="M16.5654 54.8269C15.9625 54.8269 15.4389 54.3815 15.357 53.769L12.9194 35.4799C12.829 34.8132 13.2983 34.1992 13.9662 34.1098C14.6318 34.0204 15.2471 34.4893 15.3359 35.1575L17.7752 53.4466C17.8628 54.1133 17.3953 54.7273 16.7267 54.8166C16.6723 54.8225 16.618 54.8269 16.5654 54.8269Z" fill="white"/>
</g>
<mask id="mask2_1_1509" style="mask-type:luminance" maskUnits="userSpaceOnUse" x="0" y="0" width="115" height="115">
<path d="M114.002 57.5016C114.002 26.0214 88.4826 0.501587 57.0024 0.501587C25.5222 0.501587 0.00238037 26.0214 0.00238037 57.5016C0.00238037 88.9818 25.5222 114.502 57.0024 114.502C88.4826 114.502 114.002 88.9818 114.002 57.5016Z" fill="white"/>
</mask>
<g mask="url(#mask2_1_1509)">
<path d="M97.2104 54.8269C97.8126 54.8269 98.3357 54.3815 98.4178 53.769L100.856 35.4799C100.947 34.8132 100.476 34.1992 99.8083 34.1098C99.1431 34.0204 98.5277 34.4893 98.4397 35.1575L96.0001 53.4466C95.9122 54.1133 96.3811 54.7273 97.0492 54.8166C97.1034 54.8225 97.1576 54.8269 97.2104 54.8269Z" fill="white"/>
</g>
<mask id="mask3_1_1509" style="mask-type:luminance" maskUnits="userSpaceOnUse" x="0" y="0" width="114" height="115">
<path d="M114 57.505C114 26.0248 88.4802 0.505005 57 0.505005C25.5198 0.505005 0 26.0248 0 57.505C0 88.9852 25.5198 114.505 57 114.505C88.4802 114.505 114 88.9852 114 57.505Z" fill="white"/>
</mask>
<g mask="url(#mask3_1_1509)">
<path d="M96.438 60.6444C96.438 76.6316 83.4779 89.5917 67.4906 89.5917H46.5146C30.5275 89.5917 17.5676 76.6316 17.5676 60.6444C17.5676 44.6556 30.5275 31.697 46.5146 31.697H67.4906C83.4779 31.697 96.438 44.6556 96.438 60.6444Z" fill="white"/>
</g>
<mask id="mask4_1_1509" style="mask-type:luminance" maskUnits="userSpaceOnUse" x="0" y="0" width="114" height="115">
<path d="M114 57.5096C114 26.0294 88.4802 0.509583 57 0.509583C25.5198 0.509583 0 26.0294 0 57.5096C0 88.9898 25.5198 114.51 57 114.51C88.4802 114.51 114 88.9898 114 57.5096Z" fill="white"/>
</mask>
<g mask="url(#mask4_1_1509)">
<path d="M87.6974 59.0649C87.6974 67.5867 80.7902 74.4968 72.2639 74.4968H41.7351C33.2069 74.4968 26.3002 67.5867 26.3002 59.0649C26.3002 50.543 33.2069 43.6329 41.7351 43.6329H72.2639C80.7902 43.6329 87.6974 50.543 87.6974 59.0649Z" fill="#BCDAF9"/>
</g>
<mask id="mask5_1_1509" style="mask-type:luminance" maskUnits="userSpaceOnUse" x="-1" y="0" width="115" height="115">
<path d="M113.998 57.4912C113.998 26.011 88.4784 0.491211 56.9982 0.491211C25.5179 0.491211 -0.00183105 26.011 -0.00183105 57.4912C-0.00183105 88.9714 25.5179 114.491 56.9982 114.491C88.4784 114.491 113.998 88.9714 113.998 57.4912Z" fill="white"/>
</mask>
<g mask="url(#mask5_1_1509)">
<path d="M76.5723 56.8238C76.5723 58.9031 74.8888 60.5881 72.8095 60.5881C70.7319 60.5881 69.0439 58.9031 69.0439 56.8238C69.0439 54.7447 70.7319 53.0612 72.8095 53.0612C74.8888 53.0612 76.5723 54.7447 76.5723 56.8238Z" fill="#2082EB"/>
</g>
<mask id="mask6_1_1509" style="mask-type:luminance" maskUnits="userSpaceOnUse" x="0" y="0" width="115" height="115">
<path d="M114.002 57.4912C114.002 26.011 88.482 0.491211 57.0018 0.491211C25.5215 0.491211 0.00177002 26.011 0.00177002 57.4912C0.00177002 88.9714 25.5215 114.491 57.0018 114.491C88.482 114.491 114.002 88.9714 114.002 57.4912Z" fill="white"/>
</mask>
<g mask="url(#mask6_1_1509)">
<path d="M44.9583 56.8238C44.9583 58.9031 43.2694 60.5881 41.1917 60.5881C39.113 60.5881 37.4302 58.9031 37.4302 56.8238C37.4302 54.7447 39.113 53.0612 41.1917 53.0612C43.2694 53.0612 44.9583 54.7447 44.9583 56.8238Z" fill="#2082EB"/>
</g>
<mask id="mask7_1_1509" style="mask-type:luminance" maskUnits="userSpaceOnUse" x="0" y="0" width="114" height="115">
<path d="M114 57.4954C114 26.0152 88.4802 0.495422 57 0.495422C25.5198 0.495422 0 26.0152 0 57.4954C0 88.9757 25.5198 114.495 57 114.495C88.4802 114.495 114 88.9757 114 57.4954Z" fill="white"/>
</mask>
<g mask="url(#mask7_1_1509)">
<path d="M50.1378 60.8869C50.4085 66.5149 53.379 70.9516 57.002 70.9516C60.6245 70.9516 63.5967 66.5149 63.8657 60.8869H50.1378Z" fill="white"/>
</g>
<mask id="mask8_1_1509" style="mask-type:luminance" maskUnits="userSpaceOnUse" x="0" y="0" width="114" height="115">
<path d="M114 57.4982C114 26.018 88.4802 0.49823 57 0.49823C25.5198 0.49823 0 26.018 0 57.4982C0 88.9785 25.5198 114.498 57 114.498C88.4802 114.498 114 88.9785 114 57.4982Z" fill="white"/>
</mask>
<g mask="url(#mask8_1_1509)">
<path d="M87.6974 113.038C87.6974 103.845 80.2452 96.3925 71.0522 96.3925H42.9445C33.7517 96.3925 26.3002 103.845 26.3002 113.038V124.317H87.6974V113.038Z" fill="white"/>
</g>
<mask id="mask9_1_1509" style="mask-type:luminance" maskUnits="userSpaceOnUse" x="0" y="0" width="114" height="115">
<path d="M114 57.5018C114 26.0216 88.4802 0.501831 57 0.501831C25.5198 0.501831 0 26.0216 0 57.5018C0 88.9821 25.5198 114.502 57 114.502C88.4802 114.502 114 88.9821 114 57.5018Z" fill="white"/>
</mask>
<g mask="url(#mask9_1_1509)">
<path d="M66.68 94.9676H47.3234V91.0173H66.68V94.9676Z" fill="#BCDAF9"/>
</g>
<mask id="mask10_1_1509" style="mask-type:luminance" maskUnits="userSpaceOnUse" x="-1" y="0" width="115" height="115">
<path d="M113.99 57.505C113.99 26.0248 88.4702 0.505005 56.99 0.505005C25.5098 0.505005 -0.0100098 26.0248 -0.0100098 57.505C-0.0100098 88.9852 25.5098 114.505 56.99 114.505C88.4702 114.505 113.99 88.9852 113.99 57.505Z" fill="white"/>
</mask>
<g mask="url(#mask10_1_1509)">
<path d="M10.6107 60.643C10.6107 67.9912 15.2576 74.0572 21.2788 74.9935V46.2953C15.2576 47.2316 10.6107 53.2963 10.6107 60.643Z" fill="#BCDAF9"/>
</g>
<mask id="mask11_1_1509" style="mask-type:luminance" maskUnits="userSpaceOnUse" x="0" y="0" width="115" height="115">
<path d="M114.005 57.5004C114.005 26.0202 88.485 0.500427 57.0048 0.500427C25.5245 0.500427 0.00476074 26.0202 0.00476074 57.5004C0.00476074 88.9807 25.5245 114.5 57.0048 114.5C88.485 114.5 114.005 88.9807 114.005 57.5004Z" fill="white"/>
</mask>
<g mask="url(#mask11_1_1509)">
<path d="M10.2291 33.9651C10.2291 31.8053 11.9806 30.0529 14.1412 30.0529L10.2291 33.9651Z" fill="#BCDAF9"/>
</g>
<mask id="mask12_1_1509" style="mask-type:luminance" maskUnits="userSpaceOnUse" x="0" y="0" width="115" height="115">
<path d="M114.007 57.505C114.007 26.0248 88.4868 0.505005 57.0066 0.505005C25.5264 0.505005 0.0065918 26.0248 0.0065918 57.505C0.0065918 88.9852 25.5264 114.505 57.0066 114.505C88.4868 114.505 114.007 88.9852 114.007 57.505Z" fill="white"/>
</mask>
<g mask="url(#mask12_1_1509)">
<path d="M103.166 60.643C103.166 67.9912 98.5201 74.0572 92.498 74.9935V46.2953C98.5201 47.2316 103.166 53.2963 103.166 60.643Z" fill="#BCDAF9"/>
</g>
<mask id="mask13_1_1509" style="mask-type:luminance" maskUnits="userSpaceOnUse" x="0" y="0" width="115" height="115">
<path d="M114.004 57.501C114.004 26.0207 88.4842 0.500977 57.004 0.500977C25.5237 0.500977 0.00396729 26.0207 0.00396729 57.501C0.00396729 88.9812 25.5237 114.501 57.004 114.501C88.4842 114.501 114.004 88.9812 114.004 57.501Z" fill="white"/>
</mask>
<g mask="url(#mask13_1_1509)">
<path d="M14.1404 30.0533C16.3011 30.0533 18.0524 31.8057 18.0524 33.9655C18.0524 36.1267 16.3011 37.8777 14.1404 37.8777C11.9798 37.8777 10.2283 36.1267 10.2283 33.9655" fill="#BCDAF9"/>
</g>
<mask id="mask14_1_1509" style="mask-type:luminance" maskUnits="userSpaceOnUse" x="0" y="0" width="115" height="115">
<path d="M114.003 57.501C114.003 26.0207 88.4828 0.500977 57.0026 0.500977C25.5223 0.500977 0.00256348 26.0207 0.00256348 57.501C0.00256348 88.9812 25.5223 114.501 57.0026 114.501C88.4828 114.501 114.003 88.9812 114.003 57.501Z" fill="white"/>
</mask>
<g mask="url(#mask14_1_1509)">
<path d="M95.7359 33.9655C95.7359 36.1267 97.4868 37.8777 99.648 37.8777C101.809 37.8777 103.56 36.1267 103.56 33.9655C103.56 31.8057 101.809 30.0533 99.648 30.0533C97.4868 30.0533 95.7359 31.8057 95.7359 33.9655Z" fill="#BCDAF9"/>
</g>
<mask id="mask15_1_1509" style="mask-type:luminance" maskUnits="userSpaceOnUse" x="0" y="0" width="115" height="115">
<path d="M114.005 57.4998C114.005 26.0196 88.485 0.499817 57.0048 0.499817C25.5245 0.499817 0.00476074 26.0196 0.00476074 57.4998C0.00476074 88.98 25.5245 114.5 57.0048 114.5C88.485 114.5 114.005 88.98 114.005 57.4998Z" fill="white"/>
</mask>
<g mask="url(#mask15_1_1509)">
<path d="M31.5864 79.5439C30.3818 79.5439 28.8592 79.5409 27.0076 79.5322C20.4884 79.4999 18.8698 71.2946 18.8046 70.9444C18.6809 70.2836 19.1165 69.6462 19.7775 69.5216C20.438 69.3986 21.0769 69.8322 21.201 70.4931C21.2211 70.5927 22.526 77.0706 27.0201 77.0926C32.531 77.1204 35.1037 77.0926 35.1294 77.0926C35.8105 77.0926 36.3542 77.626 36.3629 78.2984C36.3686 78.9724 35.8288 79.5234 35.1564 79.5322C35.1391 79.5322 33.9876 79.5439 31.5864 79.5439Z" fill="#1167C3"/>
</g>
<mask id="mask16_1_1509" style="mask-type:luminance" maskUnits="userSpaceOnUse" x="-1" y="0" width="115" height="115">
<path d="M113.997 57.4922C113.997 26.012 88.4768 0.492188 56.9966 0.492188C25.5164 0.492188 -0.00341797 26.012 -0.00341797 57.4922C-0.00341797 88.9724 25.5164 114.492 56.9966 114.492C88.4768 114.492 113.997 88.9724 113.997 57.4922Z" fill="white"/>
</mask>
<g mask="url(#mask16_1_1509)">
<path d="M39.6027 78.3172C39.6027 80.4769 37.8512 82.2293 35.6905 82.2293C33.5299 82.2293 31.7785 80.4769 31.7785 78.3172C31.7785 76.1559 33.5299 74.4049 35.6905 74.4049C37.8512 74.4049 39.6027 76.1559 39.6027 78.3172Z" fill="#BCDAF9"/>
</g>
</g>
<defs>
<clipPath id="clip0_1_1509">
<rect width="114" height="114" fill="white" transform="translate(0 0.5)"/>
</clipPath>
</defs>
</svg>
